<svg width="40" height="40" viewBox="0 0 40 40" fill="none" xmlns="http://www.w3.org/2000/svg">
<circle cx="20" cy="20" r="20" fill="white"/>
<g clip-path="url(#clip0_364_14310)">
<path d="M21.2452 19.9615C21.246 23.0542 18.7276 25.5803 15.6366 25.5857C12.537 25.5919 9.99922 23.0573 10 19.9569C10.0008 16.8674 12.5199 14.3428 15.6125 14.3335C18.7144 14.3242 21.2444 16.8519 21.2452 19.9615Z" fill="#2E5B98"/>
<path d="M21.751 20.1308C21.7836 18.5461 21.997 17.2042 22.7707 16.0246C23.0082 15.6622 23.3326 15.3262 23.6857 15.0755C24.3097 14.6324 25.0066 14.651 25.6003 15.1252C25.9836 15.4309 26.3631 15.8182 26.5734 16.2512C27.8082 18.789 27.8027 21.3383 26.4741 23.8474C26.2987 24.1787 26.0108 24.4721 25.7198 24.7165C25.0376 25.2885 24.2158 25.2815 23.508 24.7383C22.8445 24.2284 22.4727 23.5175 22.2112 22.75C22.0591 22.3038 21.9465 21.8397 21.8689 21.374C21.7898 20.8983 21.7758 20.4117 21.751 20.1308Z" fill="#2E5B98"/>
<path d="M27.9375 19.9625C27.9918 18.727 28.0524 17.5016 28.355 16.3018C28.4249 16.0232 28.5265 15.7461 28.66 15.4923C28.8502 15.1323 29.1342 15.1198 29.301 15.4861C29.4873 15.8943 29.6394 16.332 29.7162 16.7729C30.1074 19.0234 30.105 21.2748 29.6441 23.5184C29.5921 23.7722 29.5199 24.0314 29.3981 24.2572C29.3065 24.4264 29.121 24.5451 28.9774 24.6864C28.8424 24.5482 28.6414 24.4334 28.5847 24.2681C28.4194 23.7869 28.258 23.2926 28.1936 22.7905C28.0718 21.853 28.019 20.9062 27.9375 19.9625Z" fill="#2E5B98"/>
</g>
<defs>
<clipPath id="clip0_364_14310">
<rect width="20" height="20" fill="white" transform="translate(10 10)"/>
</clipPath>
</defs>
</svg>
