<svg width="40" height="40" viewBox="0 0 40 40" fill="none" xmlns="http://www.w3.org/2000/svg">
<circle cx="20" cy="20" r="20" fill="white"/>
<g clip-path="url(#clip0_364_14316)">
<path d="M20.9072 17.3077C21.226 16.8521 21.5855 16.4661 22.0331 16.162C22.9426 15.5442 23.9583 15.4125 25.0221 15.5108C25.7162 15.5753 26.3814 15.7415 26.9698 16.1349C27.786 16.6809 28.1896 17.4908 28.4134 18.4127C28.6197 19.2606 28.6588 20.1259 28.661 20.993C28.6661 23.0295 28.661 25.066 28.6661 27.1031C28.6667 27.2574 28.6344 27.3038 28.4717 27.3027C27.4005 27.2948 26.3289 27.2948 25.2578 27.3027C25.0978 27.3038 25.0633 27.262 25.0633 27.106C25.0684 25.1678 25.0673 23.2302 25.0622 21.292C25.0611 20.8907 25.0322 20.4905 24.9525 20.0943C24.7106 18.8988 23.9396 18.5139 22.8589 18.6411C21.8477 18.7603 21.3012 19.3578 21.1378 20.447C21.0779 20.8449 21.0553 21.2451 21.0558 21.6475C21.0575 23.4727 21.0542 25.2978 21.0604 27.1229C21.0609 27.2857 21.0236 27.3326 20.8546 27.3315C19.7903 27.323 18.726 27.3247 17.6622 27.3304C17.5175 27.3309 17.457 27.314 17.457 27.1421C17.4627 23.4071 17.4627 19.6721 17.4576 15.937C17.4576 15.781 17.5085 15.755 17.6492 15.7556C18.6711 15.7612 19.6931 15.7629 20.715 15.7545C20.8812 15.7533 20.9128 15.807 20.9095 15.9585C20.901 16.409 20.9072 16.8583 20.9072 17.3077Z" fill="#2E5B98"/>
<path d="M11.6192 21.552C11.6192 19.6924 11.6215 17.8328 11.6152 15.9732C11.6147 15.798 11.6582 15.7527 11.8345 15.7544C12.891 15.7635 13.9479 15.7618 15.0044 15.7556C15.1604 15.7544 15.2191 15.781 15.2186 15.9585C15.2124 19.6845 15.2129 23.411 15.218 27.137C15.218 27.2993 15.1734 27.3332 15.0185 27.332C13.9479 27.3253 12.8768 27.3241 11.8063 27.3332C11.6373 27.3349 11.6152 27.2795 11.6158 27.1308C11.6209 25.2712 11.6192 23.4116 11.6192 21.552Z" fill="#2E5B98"/>
<path d="M15.4914 12.084C15.4886 13.2444 14.5452 14.1878 13.3967 14.181C12.2662 14.1737 11.3263 13.2128 11.333 12.071C11.3398 10.9366 12.2764 10.0028 13.4097 10C14.5549 9.99718 15.4948 10.9383 15.4914 12.084Z" fill="#2E5B98"/>
</g>
<defs>
<clipPath id="clip0_364_14316">
<rect width="20" height="20" fill="white" transform="translate(10 10)"/>
</clipPath>
</defs>
</svg>
