<svg width="40" height="40" viewBox="0 0 40 40" fill="none" xmlns="http://www.w3.org/2000/svg">
<circle cx="20" cy="20" r="20" fill="white"/>
<path d="M10 24.3606C10 23.6183 10 22.8765 10 22.1343C10.0736 22.0998 10.0381 22.0314 10.0423 21.9803C10.0981 21.3518 10.1759 20.7264 10.2949 20.1063C10.7392 17.7902 11.672 15.6787 12.966 13.718C13.0182 13.6392 13.0777 13.5823 13.1649 13.5432C14.4078 12.9825 15.7023 12.5895 17.0418 12.34C17.1389 12.3217 17.1984 12.3389 17.2438 12.4339C17.3696 12.6975 17.5189 12.9502 17.629 13.2195C17.6927 13.3746 17.7731 13.3991 17.9208 13.3756C18.4997 13.2832 19.0839 13.2425 19.6695 13.2305C20.4839 13.2138 21.2956 13.254 22.1015 13.3787C22.2341 13.3991 22.3062 13.3714 22.3631 13.2352C22.4753 12.9664 22.6178 12.7106 22.7431 12.447C22.789 12.3499 22.8459 12.3196 22.9566 12.34C24.2898 12.5869 25.577 12.981 26.8152 13.5359C26.9097 13.5781 26.9744 13.6377 27.0303 13.7212C29.3025 17.111 30.298 20.8303 29.9227 24.905C29.9149 24.9927 29.882 25.0465 29.8141 25.0961C28.3353 26.1678 26.7312 26.9899 24.9866 27.5349C24.8671 27.5719 24.8149 27.5448 24.7497 27.4503C24.4271 26.9857 24.1358 26.5024 23.8581 26.0096C23.7657 25.8457 23.8022 25.7919 23.9609 25.734C24.4318 25.5633 24.8781 25.3388 25.3124 25.0909C25.3599 25.0637 25.4512 25.0496 25.3975 24.9525C25.2983 24.774 25.0326 24.6884 24.841 24.7714C21.6417 26.1563 18.4361 26.1589 15.231 24.7986C15.0096 24.7046 14.8604 24.7004 14.6813 24.8664C14.5576 24.9813 14.5451 25.023 14.7006 25.1076C15.1459 25.3498 15.5995 25.5732 16.0714 25.7559C16.1962 25.8044 16.2113 25.8514 16.1502 25.9678C15.8772 26.4862 15.5692 26.9816 15.2336 27.4613C15.1631 27.5625 15.0984 27.5657 14.9893 27.5307C13.2609 26.9821 11.6652 26.1719 10.1978 25.1076C10.1169 25.0486 10.083 24.987 10.0715 24.8862C10.0506 24.7109 10.0783 24.5282 10 24.3606ZM25.1213 20.7019C25.1292 20.4451 25.09 20.1955 24.9997 19.9559C24.7418 19.2732 24.2778 18.8107 23.5391 18.7099C22.8694 18.6186 22.3323 18.8958 21.9361 19.4334C21.3488 20.2305 21.4031 21.3742 22.052 22.1217C22.7175 22.8885 23.8226 22.9261 24.5336 22.2026C24.9412 21.7866 25.1166 21.2766 25.1213 20.7019ZM18.4773 20.8538C18.4783 20.361 18.412 20.0473 18.2768 19.7597C17.7199 18.5716 16.2745 18.3284 15.4137 19.2779C14.674 20.0938 14.7194 21.4661 15.5118 22.2314C16.1935 22.8901 17.201 22.8849 17.8707 22.2162C18.2889 21.8002 18.4679 21.285 18.4773 20.8538Z" fill="#2E5B98"/>
</svg>
