<svg width="40" height="40" viewBox="0 0 40 40" fill="none" xmlns="http://www.w3.org/2000/svg">
<circle cx="20" cy="20" r="20" fill="white"/>
<rect width="20" height="20" transform="translate(10 10)" fill="white"/>
<path d="M10.0021 21.4862C10.0021 21.3819 10.0021 21.278 10.0021 21.1736C10.0642 21.1084 9.98648 21.0436 10.0021 20.9784C10.0021 20.1971 10.0021 19.4163 10.0021 18.635C10.0444 18.624 10.0397 18.5891 10.0413 18.5577C10.0715 17.9471 10.1237 17.338 10.1984 16.731C10.2641 16.196 10.3174 15.6559 10.4572 15.1355C10.7224 14.1522 11.5914 13.4643 12.6514 13.3224C13.9499 13.1486 15.2553 13.0932 16.5622 13.053C19.2166 12.9716 21.8706 12.9826 24.5241 13.0953C25.5439 13.1386 26.5642 13.1877 27.5731 13.3625C28.5653 13.5348 29.4317 14.3401 29.5971 15.2639C29.7814 16.2952 29.9004 17.3354 29.9541 18.3819C30.0575 20.3881 29.9912 22.3871 29.6853 24.3756C29.6086 24.874 29.5053 25.3558 29.1999 25.7764C28.678 26.4956 27.9416 26.7822 27.0929 26.8751C25.8565 27.0108 24.6159 27.0692 23.3737 27.1068C20.7521 27.1861 18.13 27.1767 15.5094 27.0645C14.4828 27.0207 13.4562 26.9711 12.4405 26.7957C11.4092 26.6172 10.5736 25.8004 10.3998 24.7973C10.2198 23.7582 10.1091 22.7112 10.0428 21.659C10.0402 21.6021 10.0783 21.5285 10.0021 21.4862ZM18.0157 23.1172C19.7631 22.1021 21.4828 21.1026 23.2286 20.0885C21.4823 19.0708 19.7589 18.0661 18.0157 17.0504C18.0157 19.0812 18.0157 21.0817 18.0157 23.1172Z" fill="#2E5B98"/>
</svg>
