<svg width="40" height="40" viewBox="0 0 40 40" fill="none" xmlns="http://www.w3.org/2000/svg">
<circle cx="20" cy="20" r="20" fill="white"/>
<g clip-path="url(#clip0_364_14307)">
<path d="M27.945 16.0525C28.7583 15.475 29.4425 14.7542 30 13.9242V13.9233C29.2558 14.2492 28.4642 14.4658 27.6375 14.5708C28.4875 14.0633 29.1367 13.2658 29.4417 12.305C28.6492 12.7775 27.7742 13.1108 26.8417 13.2975C26.0892 12.4958 25.0167 12 23.8467 12C21.5767 12 19.7492 13.8425 19.7492 16.1008C19.7492 16.4258 19.7767 16.7383 19.8442 17.0358C16.4358 16.8692 13.4192 15.2358 11.3925 12.7467C11.0392 13.3608 10.8308 14.0633 10.8308 14.8192C10.8308 16.2392 11.5617 17.4975 12.6525 18.2267C11.9933 18.2142 11.3475 18.0225 10.8 17.7217V17.7667C10.8 19.7592 12.2208 21.4142 14.085 21.7958C13.7508 21.8875 13.3875 21.9308 13.01 21.9308C12.7475 21.9308 12.4825 21.9158 12.2342 21.8608C12.765 23.4842 14.2733 24.6783 16.065 24.7175C14.67 25.8083 12.8983 26.4658 10.9808 26.4658C10.645 26.4658 10.3225 26.4508 10 26.41C11.8167 27.5808 13.9683 28.25 16.29 28.25C23.5258 28.25 28.2417 22.2133 27.945 16.0525Z" fill="#2E5B98"/>
</g>
<defs>
<clipPath id="clip0_364_14307">
<rect width="20" height="20" fill="white" transform="translate(10 10)"/>
</clipPath>
</defs>
</svg>
