<svg width="18" height="18" viewBox="0 0 18 18" fill="none" xmlns="http://www.w3.org/2000/svg">
<g clip-path="url(#clip0_624_1037)">
<path d="M0 4.26196C0.211842 3.93957 0.413996 3.9105 0.714363 4.16683C2.44698 5.64268 4.17871 7.11897 5.91045 8.59614C6.17558 8.82207 6.17074 9.06254 5.89723 9.27967C4.18356 10.6393 2.40822 11.9165 0.640372 13.2029C0.386689 13.3875 0.208319 13.3404 0 13.0501C0 10.1209 0 7.19164 0 4.26196Z" fill="white"/>
<path d="M9.00995 1.80137C11.482 1.80137 13.9541 1.80269 16.4266 1.80005C16.8772 1.79961 17.2634 1.94275 17.5775 2.26822C17.8258 2.5263 17.8135 2.73462 17.5427 2.96584C15.3723 4.81605 13.201 6.66494 11.0324 8.51691C10.547 8.93134 10.0714 9.35767 9.58998 9.77651C9.16806 10.1438 8.83025 10.1443 8.40877 9.77387C5.79003 7.47443 3.11976 5.23577 0.467983 2.97553C0.181269 2.7311 0.169378 2.52102 0.435832 2.25324C0.749852 1.93746 1.13214 1.79961 1.57608 1.80005C4.05389 1.80313 6.53214 1.80137 9.00995 1.80137Z" fill="white"/>
<path d="M8.99297 15.3002C6.52661 15.3002 4.06025 15.3002 1.5939 15.3002C1.18783 15.3002 0.821397 15.1928 0.513543 14.9162C0.229912 14.6612 0.23828 14.422 0.544813 14.1988C1.24949 13.6852 1.95416 13.1721 2.6606 12.6608C3.97393 11.7099 5.26789 10.7335 6.5385 9.72628C6.83358 9.49241 6.95294 9.4977 7.24229 9.74786C7.52592 9.99273 7.80119 10.2482 8.09671 10.4776C8.64019 10.8996 9.37129 10.8956 9.91565 10.4688C10.2147 10.2345 10.4944 9.97468 10.7824 9.72584C11.0348 9.50783 11.1761 9.4999 11.432 9.70294C13.3848 11.2541 15.402 12.7189 17.4253 14.1758C17.7728 14.426 17.7842 14.655 17.4618 14.9365C17.1553 15.2038 16.7906 15.3002 16.3916 15.2998C13.9252 15.2994 11.4589 15.3002 8.99297 15.3002Z" fill="white"/>
<path d="M18 8.64908C18 10.0549 18.0004 11.4603 17.9996 12.8661C17.9996 13.1652 17.8177 13.3391 17.5583 13.2977C17.4803 13.2854 17.4169 13.2453 17.3552 13.2004C15.5909 11.9152 13.8191 10.6407 12.1085 9.28417C11.8266 9.06043 11.8231 8.82437 12.0988 8.58918C13.8182 7.12258 15.5385 5.65598 17.2583 4.18982C17.3072 4.14798 17.3548 4.10394 17.4081 4.06826C17.6534 3.90355 17.9652 4.05021 17.9965 4.34441C18.0026 4.40254 17.9996 4.46156 17.9996 4.52014C18 5.89645 18 7.27277 18 8.64908Z" fill="white"/>
</g>
<defs>
<clipPath id="clip0_624_1037">
<rect width="18" height="18" fill="white"/>
</clipPath>
</defs>
</svg>
