<svg width="18" height="18" viewBox="0 0 18 18" fill="none" xmlns="http://www.w3.org/2000/svg">
<path d="M0 12.9245C0 12.2564 0 11.5888 0 10.9208C0.0662419 10.8898 0.0342955 10.8282 0.0380539 10.7822C0.0883226 10.2166 0.158323 9.65373 0.265437 9.09561C0.665238 7.0111 1.50477 5.11076 2.66941 3.34619C2.71639 3.27525 2.76995 3.22404 2.8484 3.1888C3.967 2.68424 5.1321 2.33048 6.33761 2.10591C6.425 2.08947 6.47855 2.10497 6.51943 2.19048C6.63265 2.42773 6.76701 2.65511 6.86614 2.89753C6.92345 3.03706 6.9958 3.05914 7.12876 3.038C7.64977 2.95484 8.17547 2.9182 8.70259 2.90739C9.43548 2.89236 10.166 2.92853 10.8914 3.04082C11.0107 3.05914 11.0756 3.03424 11.1268 2.91162C11.2278 2.66967 11.356 2.43947 11.4688 2.20222C11.5101 2.11484 11.5613 2.08759 11.6609 2.10591C12.8608 2.32813 14.0193 2.68283 15.1337 3.18223C15.2187 3.22028 15.277 3.27384 15.3273 3.349C17.3723 6.39989 18.2682 9.74722 17.9304 13.4145C17.9234 13.4934 17.8938 13.5418 17.8327 13.5864C16.5018 14.5509 15.0581 15.2909 13.488 15.7813C13.3804 15.8147 13.3334 15.7903 13.2747 15.7052C12.9844 15.2871 12.7222 14.8521 12.4723 14.4086C12.3891 14.2611 12.422 14.2127 12.5648 14.1605C12.9886 14.0069 13.3903 13.8049 13.7811 13.5817C13.8239 13.5573 13.9061 13.5446 13.8577 13.4572C13.7685 13.2966 13.5293 13.2195 13.3569 13.2942C10.4775 14.5406 7.59245 14.5429 4.70787 13.3186C4.50868 13.2341 4.37432 13.2303 4.21317 13.3797C4.10183 13.4831 4.09056 13.5207 4.23056 13.5968C4.6313 13.8148 5.03955 14.0158 5.46425 14.1803C5.57654 14.224 5.59016 14.2662 5.53519 14.371C5.28949 14.8375 5.0123 15.2834 4.71022 15.7151C4.6468 15.8062 4.58854 15.8091 4.49036 15.7776C2.93485 15.2838 1.49866 14.5547 0.178054 13.5968C0.105235 13.5437 0.0746983 13.4882 0.0643627 13.3976C0.0455707 13.2397 0.0704701 13.0753 0 12.9245ZM13.6092 9.63165C13.6162 9.40051 13.581 9.17594 13.4997 8.9603C13.2676 8.34581 12.85 7.92956 12.1852 7.83889C11.5825 7.75668 11.099 8.00614 10.7425 8.49003C10.2139 9.20742 10.2628 10.2368 10.8468 10.9095C11.4458 11.5996 12.4403 11.6335 13.0802 10.9823C13.4471 10.6079 13.605 10.1489 13.6092 9.63165ZM7.62956 9.76836C7.6305 9.32487 7.57084 9.04252 7.44916 8.78366C6.94788 7.71439 5.64701 7.49547 4.8723 8.35003C4.2066 9.08433 4.24747 10.3194 4.96063 11.0082C5.57419 11.6011 6.4809 11.5964 7.08366 10.9945C7.45997 10.6201 7.62111 10.1564 7.62956 9.76836Z" fill="white"/>
</svg>
