<svg width="126" height="40" viewBox="0 0 126 40" fill="none" xmlns="http://www.w3.org/2000/svg">
<path d="M39.6674 22.9318C38.0794 33.8038 27.9403 41.3776 17.0682 39.7896C6.19616 38.2015 -1.37762 27.9403 0.210432 17.0682C1.79848 6.19617 11.9376 -1.37762 22.8096 0.210432C33.6817 1.92064 41.2555 12.0597 39.6674 22.9318Z" fill="white"/>
<path d="M28.916 8.02855C24.8848 5.46324 21.953 11.0825 21.953 11.2047C21.2201 12.5484 20.6093 14.7472 20.2428 16.3353L14.99 15.6023L14.7457 17.0682L19.8763 17.8012C19.7542 18.5341 19.632 19.0228 19.632 19.0228L19.3877 20.6108V20.733L14.2571 20L14.0127 21.4659L19.1434 22.1989C17.7996 28.9175 16.8224 30.9942 15.8451 32.0936C15.6008 32.338 14.2571 33.3152 13.5241 31.605C13.0355 30.3834 12.0582 30.6277 12.0582 30.6277C11.8139 30.6277 10.5923 31.3607 12.5468 32.7044C16.5781 35.2697 19.5098 29.6505 19.5098 29.5283C20.2428 28.1846 21.2201 24.3977 21.5865 22.6875L26.8393 23.4204L27.0836 21.9545L21.8308 21.2216C21.953 20.4886 22.0752 20 22.0752 20L22.3195 18.412V18.2898L27.4501 19.0228L27.6944 17.5569L22.5638 16.8239C23.9075 10.1052 24.5183 9.73876 25.4956 8.51718C25.7399 8.27286 27.0836 7.2956 27.8166 9.00581C28.3052 10.2274 29.2825 9.98307 29.2825 9.98307C29.6489 10.1052 30.8705 9.25013 28.916 8.02855Z" fill="#3990F7"/>
<path fill-rule="evenodd" clip-rule="evenodd" d="M57.3808 18.9006H50.0513V12.9149H57.6251L57.7472 11.0825H47.9746V28.7954H50.0513V20.6108H57.3808V18.9006ZM62.1449 11.0825H60.1904V13.4035H62.1449V11.0825ZM62.1449 15.7245H60.1904V28.7954H62.1449V15.7245ZM67.5199 10.9603L65.5653 11.2046V23.2983C65.5653 27.5738 65.6875 29.1618 68.8636 29.1618C69.3522 29.1618 69.7187 29.0397 70.2073 29.0397L70.0852 27.3295C69.4744 27.3295 69.3522 27.4516 68.9858 27.4516C67.642 27.4516 67.5199 26.5965 67.5199 23.7869V10.9603ZM77.2925 29.0397C73.6278 29.0397 71.3067 26.3522 71.3067 22.1988C71.3067 18.2898 73.6278 15.4802 77.0482 15.358C80.2243 15.358 82.301 17.8012 82.301 21.5881C82.301 21.8324 82.301 22.321 82.301 22.4432H73.3834C73.3834 25.375 75.0936 27.2073 77.4146 27.2073C78.8805 27.2073 80.3464 26.7187 81.568 25.8636L82.1788 27.3295C80.9572 28.4289 79.3692 29.0397 77.2925 29.0397ZM73.3834 21.2216H80.3464C80.3464 18.412 79.0027 17.0682 77.0482 17.0682C75.0936 17.0682 73.6278 18.7784 73.3834 21.2216ZM93.9059 27.9403C93.0508 28.7954 91.7071 29.1618 90.3634 29.1618C86.3322 29.1618 84.1333 25.9857 84.1333 22.321C84.1333 18.6563 86.4543 15.4802 90.3634 15.4802C91.8293 15.4802 93.173 15.9688 93.9059 16.5796L93.4173 18.0455C92.5622 17.4347 91.4628 17.1904 90.3634 17.1904C88.0424 17.1904 86.21 19.3892 86.21 22.4432C86.21 25.4971 87.9202 27.5738 90.6077 27.5738C91.7071 27.5738 92.6844 27.2073 93.5395 26.5965L93.9059 27.9403ZM105.511 22.321C105.511 19.5114 104.534 17.0682 101.602 17.0682C98.7923 17.0682 97.5707 19.6335 97.5707 22.321C97.5707 25.0085 98.9144 27.4516 101.724 27.4516C104.534 27.4516 105.511 25.0085 105.511 22.321ZM107.588 22.321C107.588 25.8636 105.511 29.1618 101.602 29.1618C97.6928 29.1618 95.494 26.1079 95.494 22.4432C95.494 18.7784 97.6928 15.6023 101.724 15.6023C105.511 15.4802 107.588 18.5341 107.588 22.321ZM112.352 11.0825H110.397V13.4035H112.352V11.0825ZM112.352 15.7245H110.397V28.7954H112.352V15.7245ZM121.758 15.4802C119.926 15.4802 118.093 16.3353 117.116 17.679L116.994 15.7245H115.284V18.9006V28.7954H117.238V19.8778C117.605 18.6563 119.07 17.1904 121.269 17.1904C123.712 17.1904 123.835 18.9006 123.835 22.321V28.7954H125.789V20.9773C125.911 17.3125 124.69 15.4802 121.758 15.4802Z" fill="white"/>
</svg>
