<svg width="18" height="18" viewBox="0 0 18 18" fill="none" xmlns="http://www.w3.org/2000/svg">
<g clip-path="url(#clip0_358_2964)">
<path d="M9.81706 6.57698C10.104 6.16697 10.4275 5.81952 10.8304 5.54584C11.6489 4.98982 12.5631 4.87129 13.5204 4.95981C14.1451 5.0178 14.7439 5.16736 15.2734 5.52142C16.008 6.01283 16.3712 6.74181 16.5727 7.57151C16.7584 8.33457 16.7935 9.1134 16.7955 9.89375C16.8001 11.7266 16.7955 13.5595 16.8001 15.3929C16.8006 15.5317 16.7716 15.5735 16.6251 15.5724C15.6611 15.5653 14.6966 15.5653 13.7326 15.5724C13.5886 15.5735 13.5576 15.5358 13.5576 15.3954C13.5622 13.6511 13.5611 11.9072 13.5566 10.1629C13.5555 9.80168 13.5296 9.44151 13.4579 9.08491C13.2401 8.00899 12.5463 7.66257 11.5736 7.77702C10.6635 7.88436 10.1716 8.42206 10.0246 9.40234C9.97069 9.76047 9.95034 10.1206 9.95085 10.4828C9.95238 12.1254 9.94932 13.7681 9.95492 15.4107C9.95543 15.5572 9.92185 15.5994 9.76975 15.5984C8.81186 15.5908 7.85396 15.5923 6.89657 15.5974C6.76635 15.5979 6.71191 15.5826 6.71191 15.428C6.717 12.0664 6.717 8.70491 6.71242 5.34337C6.71242 5.20297 6.75821 5.17957 6.88487 5.18008C7.80462 5.18516 8.72436 5.18669 9.6441 5.17906C9.79366 5.17804 9.82215 5.22637 9.81909 5.3627C9.81146 5.76814 9.81706 6.17256 9.81706 6.57698Z" fill="white"/>
<path d="M1.45767 10.397C1.45767 8.7234 1.4597 7.04975 1.45411 5.37611C1.4536 5.21841 1.49277 5.17771 1.65148 5.17924C2.60226 5.18738 3.55354 5.18585 4.50431 5.18026C4.64471 5.17924 4.69762 5.20315 4.69711 5.36288C4.69152 8.71628 4.69202 12.0702 4.6966 15.4236C4.6966 15.5696 4.65642 15.6001 4.51703 15.5991C3.55354 15.593 2.58954 15.592 1.62605 15.6001C1.47395 15.6016 1.45411 15.5518 1.45462 15.418C1.45919 13.7443 1.45767 12.0707 1.45767 10.397Z" fill="white"/>
<path d="M4.94278 1.87561C4.94024 2.91998 4.09121 3.76901 3.05752 3.76291C2.0401 3.7563 1.19412 2.89149 1.20023 1.86391C1.20633 0.842933 2.04926 0.00254925 3.06922 5.71376e-06C4.09986 -0.00253782 4.94584 0.844459 4.94278 1.87561Z" fill="white"/>
</g>
<defs>
<clipPath id="clip0_358_2964">
<rect width="18" height="18" fill="white"/>
</clipPath>
</defs>
</svg>
