<svg width="73" height="40" viewBox="0 0 73 40" fill="none" xmlns="http://www.w3.org/2000/svg">
<path d="M0.18411 13.428C0.18411 13.1308 0.18105 12.8346 0.18513 12.5373C0.19227 12.062 0.292237 11.5988 0.360582 11.1316C0.396284 10.8863 0.440147 10.6379 0.494211 10.3997C0.571736 10.0587 0.6309 9.71261 0.744128 9.37568C0.859396 9.03366 1.00935 8.70487 1.10931 8.35573C1.2001 8.03814 1.39595 7.7521 1.5408 7.44978C1.7846 6.9398 2.0488 6.43594 2.38236 5.98398C2.65472 5.6155 2.87505 5.21037 3.20454 4.87751C3.57278 4.50597 3.8788 4.0703 4.26847 3.71912C4.702 3.32824 5.12533 2.91395 5.60884 2.59229C6.31371 2.12405 7.00022 1.61305 7.79995 1.30564C8.04477 1.21098 8.29876 1.12547 8.52828 1.01248C8.80064 0.878119 9.07504 0.762076 9.3627 0.674536C9.65342 0.585977 9.94312 0.491311 10.2389 0.424128C10.7204 0.315211 11.207 0.225635 11.6905 0.127915C11.715 0.122825 11.7415 0.118754 11.766 0.119772C12.4841 0.162524 13.1951 -0.0817756 13.9081 0.0291772C14.3529 0.0983954 14.7976 0.0688759 15.2352 0.127915C15.7667 0.200187 16.3012 0.289764 16.8174 0.434308C17.4467 0.609389 18.069 0.801775 18.6708 1.07967C19.2064 1.32702 19.7388 1.57946 20.2652 1.84616C20.5569 1.99375 20.7905 2.23195 21.0782 2.39176C21.4158 2.57906 21.6933 2.85389 21.9993 3.08496C22.5553 3.50434 23.0214 4.01533 23.5039 4.50699C23.8212 4.83068 24.0578 5.23174 24.3455 5.587C24.6586 5.97279 24.8698 6.42169 25.1442 6.82987C25.3339 7.11183 25.4013 7.44978 25.5859 7.72869C25.8664 8.15418 25.9694 8.65296 26.1745 9.11C26.2999 9.38891 26.3142 9.71566 26.4101 10.0109C26.5529 10.4526 26.6213 10.9127 26.6835 11.3637C26.7467 11.8248 26.8712 12.289 26.8161 12.7613C26.7947 12.9455 26.9303 13.0992 26.8906 13.2784C26.7722 13.8107 26.863 14.3614 26.7253 14.8958C26.6519 15.1819 26.6947 15.4933 26.6172 15.7916C26.508 16.212 26.4591 16.6466 26.305 17.0569C26.2816 17.1179 26.2979 17.1933 26.2795 17.2574C26.1724 17.633 26.0123 17.9862 25.8542 18.3445C25.7358 18.6133 25.6236 18.8942 25.5022 19.166C25.2258 19.7818 24.8678 20.3478 24.4934 20.9137C23.8752 21.8472 23.1194 22.6534 22.3002 23.3914C21.6576 23.9705 20.968 24.5172 20.1795 24.9009C19.7888 25.0913 19.4461 25.3712 19.0401 25.5178C18.6015 25.6756 18.1853 25.8975 17.7211 25.987C17.5987 26.0104 17.4702 26.04 17.3631 26.1C17.053 26.2721 16.7082 26.3056 16.3747 26.3922C15.8503 26.5286 15.3046 26.5174 14.7844 26.665C14.6966 26.6894 14.5987 26.6813 14.5049 26.6813C13.953 26.6833 13.4001 26.6823 12.8483 26.6853C12.327 26.6884 11.82 26.5764 11.3069 26.5082C11.0254 26.4716 10.75 26.4054 10.4685 26.3677C10.242 26.3372 10.0186 26.2731 9.80133 26.1855C9.4443 26.042 9.07402 25.93 8.70985 25.8018C8.21002 25.6267 7.73161 25.4089 7.26747 25.1503C6.73296 24.8521 6.19538 24.5558 5.69963 24.2026C5.02638 23.7242 4.42046 23.1603 3.84106 22.5668C3.3351 22.0477 2.91178 21.4695 2.48233 20.8914C2.1151 20.3966 1.80092 19.8663 1.55304 19.3146C1.2715 18.6876 0.958343 18.0727 0.76453 17.3999C0.632941 16.9439 0.564596 16.4726 0.405465 16.0227C0.32794 15.8048 0.350381 15.5524 0.291217 15.3142C0.138207 14.6953 0.18207 14.0591 0.18411 13.428ZM4.67344 13.3008C4.67446 13.3008 4.67548 13.3008 4.6765 13.3008C4.6765 13.6652 4.61631 14.0428 4.69078 14.3909C4.7938 14.8673 4.81115 15.36 4.97844 15.8232C5.10799 16.1825 5.21713 16.5489 5.35484 16.9042C5.46297 17.1831 5.6374 17.4335 5.77613 17.6961C6.04033 18.1969 6.35247 18.6703 6.72378 19.0805C7.12772 19.5263 7.53065 19.9844 8.03865 20.3376C8.48034 20.644 8.89755 20.983 9.38106 21.2262C9.84315 21.4594 10.3195 21.6487 10.8163 21.7953C11.0958 21.8777 11.3977 21.9032 11.6548 22.0111C12.1822 22.2319 12.7381 22.1658 13.2757 22.2574C13.751 22.3388 14.2294 22.1505 14.713 22.1861C14.7374 22.1882 14.764 22.1831 14.7874 22.1739C15.2689 21.9958 15.7861 21.951 16.2686 21.778C16.5827 21.665 16.899 21.554 17.204 21.4166C17.6987 21.1947 18.1455 20.8903 18.6035 20.6033C18.934 20.3966 19.1758 20.0984 19.5083 19.8948C19.7337 19.7564 19.9418 19.4948 20.1316 19.2749C20.5651 18.7731 20.9578 18.2285 21.2761 17.6452C21.6658 16.9306 21.9697 16.1784 22.1278 15.3702C22.1625 15.192 22.1687 15.0058 22.2207 14.8337C22.3247 14.4897 22.3859 14.1385 22.4043 13.7832C22.4379 13.1552 22.3574 12.5394 22.2299 11.9184C22.1095 11.328 21.9973 10.7387 21.7861 10.1768C21.6321 9.76554 21.474 9.33903 21.2261 8.98276C20.9568 8.59799 20.7304 8.18573 20.4243 7.81827C20.0469 7.36529 19.6562 6.91945 19.2043 6.56318C18.677 6.14787 18.1312 5.73358 17.5059 5.44856C17.0397 5.23683 16.5807 5.01594 16.0819 4.88362C15.7687 4.80116 15.4556 4.72889 15.1394 4.66273C14.7803 4.5874 14.4161 4.53345 14.0581 4.50495C13.4817 4.45915 12.9023 4.48663 12.3209 4.57824C11.8965 4.64542 11.4722 4.72686 11.056 4.81949C10.6051 4.91924 10.1757 5.11468 9.75032 5.30809C9.00363 5.64807 8.35181 6.12853 7.71222 6.62323C7.30522 6.93879 6.97777 7.34392 6.64421 7.73887C6.19334 8.27124 5.8353 8.86265 5.51907 9.47849C5.32322 9.85817 5.17327 10.2572 5.06106 10.6735C4.98354 10.9606 4.89785 11.2425 4.84175 11.5367C4.78462 11.8339 4.7071 12.1312 4.67956 12.4325C4.65304 12.7226 4.67344 13.0127 4.67344 13.3008Z" fill="white"/>
<path d="M15.3877 40.0007C14.8562 39.8144 14.3125 39.6383 13.9575 39.1629C13.727 38.8535 13.5669 38.5033 13.5322 38.1094C13.4832 37.5546 13.5393 37.0212 13.8504 36.5387C13.9575 36.3718 14.1095 36.2476 14.2432 36.1051C14.6339 35.6898 15.0296 35.2765 15.4356 34.8775C15.91 34.4113 16.3731 33.9329 16.8607 33.4799C17.1973 33.1674 17.5502 32.8569 17.8522 32.5231C18.4958 31.8105 19.218 31.1784 19.8688 30.476C20.1749 30.1462 20.5309 29.8612 20.8185 29.5172C21.1745 29.0917 21.6091 28.7466 21.9845 28.3394C22.3945 27.8946 22.8148 27.4294 23.3126 27.0813C23.839 26.7128 24.4541 26.556 25.113 26.7382C25.5221 26.8512 25.9128 26.9897 26.2004 27.3235C26.5381 27.7154 26.7747 28.143 26.8298 28.6764C26.892 29.2678 26.7166 29.7838 26.3922 30.248C26.1168 30.6409 25.7434 30.9524 25.3935 31.2832C24.7927 31.8523 24.247 32.4783 23.637 33.0361C23.0841 33.543 22.622 34.1375 22.0334 34.6108C21.8009 34.7981 21.6356 35.0851 21.399 35.2796C20.9583 35.6419 20.6145 36.097 20.1953 36.4807C19.8117 36.8309 19.4924 37.2513 19.1058 37.5963C18.6611 37.9933 18.2694 38.4422 17.8236 38.8372C17.5737 39.0591 17.337 39.3003 17.1167 39.5518C17.0188 39.6637 16.8862 39.6831 16.7729 39.7411C16.5567 39.852 16.3149 39.9152 16.0834 39.9986C15.9395 39.8653 15.5274 39.8663 15.3877 40.0007Z" fill="white"/>
<path d="M40.5677 21.437C39.9434 21.9001 39.3232 22.2635 38.5735 22.1852C37.9624 22.121 37.3892 21.9042 36.8965 21.5072C35.9906 20.7794 35.6234 19.8175 35.6928 18.6896C35.7479 17.7878 36.0876 17.005 36.7863 16.3851C37.5177 15.7367 38.3766 15.6084 39.2977 15.7C39.6598 15.7356 40.2484 16.0827 40.5453 16.4034C40.6187 16.2599 40.582 16.1153 40.5779 15.982C40.5728 15.8181 40.6391 15.7835 40.785 15.7855C41.2613 15.7916 41.7367 15.7947 42.2131 15.7845C42.3691 15.7814 42.4161 15.8222 42.412 15.981C42.4018 16.4645 42.4079 16.948 42.4079 17.4305C42.4079 18.8718 42.3987 20.3142 42.412 21.7556C42.4181 22.4814 42.2273 23.1552 41.8693 23.765C41.5439 24.3177 41.0308 24.6648 40.4014 24.8623C39.7935 25.0526 39.1763 25.1147 38.5612 25.0323C37.9216 24.9468 37.3014 24.7584 36.7975 24.3055C36.363 23.9146 36.0906 23.4423 35.9804 22.8722C35.9417 22.6738 36.0151 22.6066 36.2212 22.6137C36.6374 22.6279 37.0536 22.6178 37.4708 22.6137C37.6013 22.6127 37.6636 22.6544 37.7319 22.7867C38.0114 23.3211 38.4674 23.6062 39.0804 23.5726C39.3854 23.5553 39.6823 23.5196 39.9761 23.3578C40.3331 23.1624 40.4636 22.8417 40.5524 22.52C40.6442 22.1882 40.5912 21.8228 40.5677 21.437ZM37.4922 18.8912C37.3851 19.8704 38.3154 20.6318 39.1457 20.5606C40.1821 20.471 40.7411 19.9325 40.734 18.9054C40.7268 17.7715 40.077 17.2727 38.9794 17.2625C38.2634 17.2564 37.4116 17.9119 37.4922 18.8912Z" fill="white"/>
<path d="M59.4909 23.2855C59.4909 23.7262 59.4869 24.167 59.493 24.6078C59.496 24.8348 59.4471 24.962 59.1696 24.9457C58.7381 24.9213 58.3036 24.9355 57.8701 24.9447C57.7405 24.9477 57.7099 24.9101 57.6895 24.7808C57.6426 24.4836 57.6987 24.1924 57.6977 23.8983C57.6926 22.008 57.7109 20.1177 57.6864 18.2275C57.6773 17.52 57.6885 16.8126 57.6569 16.1051C57.6446 15.8384 57.6987 15.7885 57.9823 15.7875C58.3903 15.7865 58.7983 15.7936 59.2053 15.7804C59.4144 15.7743 59.5409 15.815 59.4858 16.0593C59.4787 16.0909 59.4807 16.1285 59.4889 16.1601C59.5154 16.272 59.5154 16.3891 59.6848 16.2435C60.3468 15.6715 61.1547 15.5544 61.9605 15.7173C62.9194 15.9107 63.6192 16.5143 64.0201 17.4192C64.2547 17.9486 64.4526 18.5013 64.4169 19.0886C64.3781 19.7146 64.1924 20.3132 63.8895 20.8669C63.7426 21.1367 63.5804 21.4054 63.3254 21.5896C62.9031 21.896 62.5052 22.238 61.9493 22.3195C61.7443 22.35 61.5403 22.3989 61.3301 22.4019C60.712 22.4101 60.1928 22.1668 59.7174 21.7953C59.6695 21.7576 59.6358 21.6456 59.5399 21.6996C59.4675 21.7403 59.495 21.8227 59.495 21.8858C59.492 22.3521 59.493 22.8183 59.493 23.2845C59.492 23.2855 59.492 23.2855 59.4909 23.2855ZM60.9405 17.293C59.95 17.2319 59.3298 18.0432 59.3359 18.999C59.343 20.1106 60.0153 20.7661 60.9731 20.7631C61.883 20.76 62.6124 20.0505 62.596 18.9369C62.5848 18.1175 61.8963 17.176 60.9405 17.293Z" fill="white"/>
<path d="M67.7156 16.4817C68.3929 15.6287 69.2773 15.5992 70.1658 15.7112C71.0134 15.8191 71.6857 16.5723 71.8958 17.4203C72.0458 18.0259 72.0621 18.6316 72.0641 19.2444C72.0662 20.1259 72.0662 21.0084 72.0641 21.8899C72.0631 22.2492 72.0284 22.2788 71.6775 22.2767C71.3031 22.2747 70.9288 22.2666 70.5554 22.2798C70.3412 22.2869 70.2545 22.233 70.2576 21.9958C70.2678 20.8506 70.2484 19.7065 70.2647 18.5613C70.2688 18.2448 70.1678 17.9669 70.027 17.7144C69.9261 17.5353 69.7261 17.3551 69.515 17.3246C68.7621 17.2167 68.2582 17.2808 67.9043 18.1206C67.7686 18.4422 67.7023 18.7832 67.7023 19.1365C67.7043 20.1035 67.6992 21.0705 67.7064 22.0365C67.7074 22.2167 67.6717 22.29 67.4697 22.2818C67.0291 22.2635 66.5863 22.2645 66.1447 22.2777C65.9927 22.2818 65.9468 22.2095 65.9325 22.0945C65.9202 21.9948 65.9315 21.8909 65.9315 21.7902C65.9315 18.8392 65.9304 15.8883 65.9304 12.9363C65.9304 12.5506 65.9294 12.5506 66.3007 12.5506C66.6832 12.5506 67.0658 12.5628 67.4483 12.5455C67.6523 12.5363 67.7084 12.6004 67.7074 12.7989C67.6992 13.9349 67.7033 15.0709 67.7043 16.2079C67.7033 16.2741 67.7094 16.3392 67.7156 16.4817Z" fill="white"/>
<path d="M43.632 7.5923C43.9217 7.37447 44.0839 7.09963 44.3899 6.98664C44.5041 6.94491 44.6276 6.90623 44.7398 6.87264C45.5089 6.64462 46.2801 6.71282 46.9237 7.17598C47.4654 7.56584 47.8224 8.1318 47.9203 8.83721C48.1213 10.2888 47.9571 11.7444 48.0172 13.1969C48.0223 13.3181 47.9815 13.3578 47.8591 13.3568C47.3664 13.3507 46.8737 13.3486 46.38 13.3568C46.2209 13.3588 46.1852 13.3028 46.1852 13.1501C46.1893 11.9459 46.2178 10.7407 46.1689 9.53856C46.1403 8.82805 45.8088 8.42598 44.9948 8.43208C44.4756 8.43615 44.0777 8.6662 43.8727 9.10085C43.7248 9.41335 43.635 9.78082 43.633 10.1463C43.6289 11.1387 43.6269 12.1302 43.636 13.1226C43.6381 13.3079 43.5973 13.369 43.4014 13.3608C42.9689 13.3445 42.5344 13.3445 42.1019 13.3608C41.9152 13.368 41.8683 13.2977 41.8795 13.1338C41.8876 13.0158 41.8846 12.8977 41.8846 12.7796C41.8856 9.82866 41.8876 6.87773 41.8815 3.92679C41.8815 3.73135 41.9274 3.66926 42.1325 3.67842C42.5476 3.69674 42.9659 3.69471 43.381 3.67944C43.5779 3.67231 43.6381 3.72321 43.636 3.92577C43.6258 5.03632 43.6309 6.14686 43.632 7.25843C43.632 7.35309 43.632 7.4498 43.632 7.5923Z" fill="white"/>
<path d="M53.9193 16.44C53.9255 16.3321 53.9295 16.2904 53.9306 16.2487C53.9438 15.7865 53.9438 15.7865 54.3967 15.7865C54.7793 15.7865 55.1618 15.7926 55.5443 15.7845C55.7014 15.7814 55.7626 15.812 55.7616 15.9921C55.7544 18.0015 55.7565 20.0109 55.7606 22.0213C55.7606 22.2197 55.6841 22.289 55.4892 22.2839C55.0649 22.2747 54.6395 22.2696 54.2152 22.2829C53.9979 22.29 53.902 22.233 53.9285 22.0009C53.9408 21.8991 53.9887 21.7393 53.8949 21.6965C53.7867 21.6456 53.7153 21.7983 53.6286 21.8665C53.0757 22.3093 52.4362 22.4864 51.7435 22.3887C50.8581 22.2645 50.1583 21.7831 49.6595 21.0664C49.378 20.6613 49.1801 20.1951 49.123 19.6739C49.0924 19.392 49.0128 19.109 49.0495 18.826C49.1403 18.1257 49.2913 17.4529 49.7432 16.8635C50.1818 16.2914 50.7337 15.8792 51.413 15.7326C51.9486 15.6175 52.5198 15.6033 53.0686 15.8557C53.3746 15.9972 53.6551 16.1499 53.9193 16.44ZM54.0509 19.0255C54.0754 18.7212 53.9969 18.4229 53.8561 18.1135C53.5633 17.4661 52.5678 17.0284 51.922 17.3297C51.2457 17.6452 50.8683 18.1613 50.854 18.9329C50.8387 19.7136 51.1019 20.305 51.8537 20.6328C52.477 20.9046 53.04 20.7702 53.5338 20.3671C53.9357 20.0373 54.0826 19.5701 54.0509 19.0255Z" fill="white"/>
<path d="M53.7191 10.586C53.005 10.586 52.291 10.586 51.5769 10.586C51.2311 10.586 51.173 10.7194 51.327 11.0461C51.6677 11.7698 52.2777 11.9643 53.0111 11.9459C53.5242 11.9327 53.9669 11.7922 54.2536 11.326C54.3076 11.2375 54.4046 11.213 54.5157 11.2151C54.9656 11.2222 55.4165 11.2192 55.8673 11.2202C56.1407 11.2212 56.1876 11.268 56.0764 11.5154C55.7031 12.347 55.1094 12.9313 54.2322 13.2631C53.8354 13.4128 53.4365 13.4514 53.0397 13.4972C52.5317 13.5553 52.0268 13.4545 51.5382 13.2733C51.1454 13.1277 50.7731 12.9476 50.4885 12.6483C50.0274 12.1617 49.647 11.6304 49.5317 10.9331C49.4766 10.5992 49.4256 10.2694 49.446 9.93658C49.5123 8.86981 49.9571 8.00661 50.8486 7.38365C51.3005 7.0681 51.7891 6.9093 52.3359 6.81056C52.9275 6.70266 53.4885 6.76781 54.0179 6.95103C54.9523 7.27371 55.6195 7.90889 55.9826 8.85861C56.1601 9.32278 56.153 9.80832 56.2529 10.2786C56.3009 10.5015 56.2019 10.5962 55.9612 10.5921C55.2145 10.5779 54.4668 10.585 53.7191 10.586ZM52.7439 9.38894C53.1091 9.38894 53.4743 9.38996 53.8394 9.38894C54.3148 9.38691 54.3301 9.36146 54.1169 8.93597C54.1036 8.90849 54.07 8.8922 54.0496 8.86675C53.7986 8.54611 53.51 8.31809 53.0836 8.22648C52.6929 8.142 52.3542 8.22343 52.0309 8.38222C51.6891 8.54916 51.4586 8.84843 51.3046 9.19757C51.2454 9.3299 51.2821 9.39607 51.4453 9.39301C51.8778 9.38283 52.3114 9.38894 52.7439 9.38894Z" fill="white"/>
<path d="M36.7935 10.1717C36.7935 9.68919 36.7884 9.20568 36.7956 8.72319C36.7986 8.53895 36.7323 8.46158 36.5436 8.46769C36.2386 8.47787 35.9316 8.46158 35.6266 8.47482C35.495 8.47991 35.4287 8.4229 35.4246 8.31399C35.4123 7.93939 35.4256 7.56378 35.4072 7.18919C35.396 6.96932 35.4797 6.90825 35.6878 6.92046C35.9591 6.93573 36.2315 6.91334 36.5028 6.92759C36.7333 6.9398 36.7966 6.83394 36.7935 6.62628C36.7864 6.18553 36.7996 5.74477 36.7874 5.30503C36.7823 5.13605 36.8353 5.09432 36.9996 5.09839C37.4413 5.10857 37.8829 5.11061 38.3246 5.09432C38.5144 5.08719 38.5429 5.15438 38.5378 5.32437C38.5256 5.79057 38.5399 6.25678 38.5307 6.72197C38.5276 6.8889 38.5817 6.93369 38.7469 6.92962C39.2223 6.91741 39.6987 6.93064 40.174 6.92046C40.325 6.91741 40.3811 6.951 40.375 7.11386C40.3617 7.50373 40.3607 7.89359 40.374 8.28345C40.3791 8.45039 40.3168 8.47685 40.1699 8.4738C39.6946 8.46464 39.2182 8.47787 38.7429 8.46464C38.5715 8.45955 38.5287 8.51655 38.5307 8.67738C38.5378 9.4398 38.5246 10.2032 38.5389 10.9657C38.546 11.3993 38.8092 11.8492 39.3814 11.8339C39.6528 11.8268 39.9272 11.8451 40.1934 11.8044C40.3372 11.783 40.3719 11.7881 40.3709 11.9317C40.3658 12.3388 40.3678 12.745 40.3699 13.1521C40.3699 13.2631 40.3505 13.3231 40.2128 13.3547C39.8048 13.4463 39.3947 13.4545 38.9836 13.4372C38.2257 13.4056 37.5769 13.1175 37.1281 12.5037C36.9537 12.2655 36.8149 11.9663 36.8109 11.6466C36.8037 11.155 36.8088 10.6644 36.8088 10.1727C36.8027 10.1717 36.7986 10.1717 36.7935 10.1717Z" fill="white"/>
<path d="M31.2955 2.28593C31.4118 3.35677 30.1958 4.61695 28.9105 4.50702C27.7599 4.4093 26.7857 3.45144 26.8316 2.2503C26.8847 0.879167 27.7395 0.0678887 29.0891 0.0373512C30.2774 0.0108854 31.2985 0.947368 31.2955 2.28593Z" fill="white"/>
<path d="M46.1148 16.723C46.4545 16.0573 47.2553 15.6308 47.9601 15.7102C48.2794 15.7458 48.3161 15.7835 48.3161 16.096C48.3161 16.494 48.3029 16.893 48.3243 17.29C48.3355 17.5109 48.2529 17.5404 48.0652 17.5109C47.8673 17.4793 47.6776 17.407 47.4705 17.4223C46.9564 17.461 46.4259 17.7826 46.2617 18.3405C46.1495 18.7191 46.0842 19.0978 46.0883 19.4927C46.0954 20.3396 46.0852 21.1876 46.0934 22.0345C46.0954 22.2258 46.0342 22.2849 45.8455 22.2798C45.4212 22.2676 44.9968 22.2706 44.5725 22.2788C44.395 22.2818 44.3409 22.2187 44.3409 22.0406C44.346 20.0241 44.346 18.0076 44.3389 15.9911C44.3379 15.8232 44.3817 15.7773 44.547 15.7814C44.9968 15.7926 45.4477 15.7936 45.8965 15.7804C46.0597 15.7753 46.0914 15.8303 46.0954 15.9779C46.1026 16.21 46.0567 16.4431 46.1148 16.723Z" fill="white"/>
<path d="M15.3877 40.0007C15.5264 39.8653 15.9396 39.8653 16.0834 39.9997C15.8518 39.9997 15.6203 40.0007 15.3877 40.0007Z" fill="white"/>
</svg>
