<svg width="18" height="18" viewBox="0 0 18 18" fill="none" xmlns="http://www.w3.org/2000/svg">
<path d="M0.0019197 10.3376C0.0019197 10.2436 0.0019197 10.1501 0.0019197 10.0562C0.0578174 9.99748 -0.0121722 9.93923 0.0019197 9.88052C0.0019197 9.17733 0.0019197 8.47462 0.0019197 7.77144C0.0399677 7.76157 0.0357402 7.7301 0.0371493 7.70192C0.0643936 7.15233 0.111366 6.60416 0.178538 6.05787C0.237723 5.57639 0.285636 5.09023 0.411523 4.62191C0.650145 3.73694 1.43224 3.11783 2.38626 2.99007C3.55495 2.83365 4.72974 2.78386 5.90594 2.74769C8.29498 2.67441 10.6835 2.68428 13.0716 2.78574C13.9895 2.82472 14.9078 2.86888 15.8158 3.02624C16.7088 3.18125 17.4885 3.90604 17.6374 4.73746C17.8032 5.66564 17.9103 6.60181 17.9587 7.54362C18.0517 9.34925 17.9921 11.1483 17.7168 12.938C17.6477 13.3866 17.5547 13.8201 17.2799 14.1987C16.8102 14.846 16.1474 15.1039 15.3837 15.1875C14.2709 15.3096 13.1543 15.3623 12.0364 15.3961C9.67692 15.4675 7.317 15.459 4.9585 15.358C4.03454 15.3186 3.11058 15.2739 2.19649 15.1161C1.26831 14.9555 0.516272 14.2203 0.359853 13.3175C0.197797 12.3823 0.0982141 11.44 0.0385585 10.493C0.0362099 10.4418 0.0705001 10.3756 0.0019197 10.3376ZM7.21413 11.8055C8.78678 10.8918 10.3345 9.99231 11.9058 9.07963C10.3341 8.16366 8.78303 7.25943 7.21413 6.34534C7.21413 8.17305 7.21413 9.97352 7.21413 11.8055Z" fill="white"/>
</svg>
