<svg width="151" height="63" viewBox="0 0 151 63" fill="none" xmlns="http://www.w3.org/2000/svg">
<rect opacity="0.2" x="2" y="1" width="147" height="59.1304" rx="10" fill="#B0D2FC"/>
<path d="M56.8631 32.8596C55.6125 41.3682 47.628 47.2955 39.0662 46.0527C30.5045 44.8099 24.5401 36.7793 25.7907 28.2708C27.0413 19.7622 35.0258 13.8349 43.5876 15.0777C52.1493 16.4161 58.1137 24.3511 56.8631 32.8596Z" fill="#3990F7"/>
<path d="M48.3964 21.1961C45.2218 19.1884 42.913 23.5861 42.913 23.6817C42.3358 24.7333 41.8548 26.4542 41.5662 27.697L37.4297 27.1234L37.2373 28.2706L41.2776 28.8442C41.1815 29.4178 41.0853 29.8002 41.0853 29.8002L40.8929 31.043V31.1386L36.8525 30.565L36.6601 31.7123L40.7005 32.2859C39.6423 37.544 38.8727 39.1692 38.1031 40.0296C37.9107 40.2208 36.8525 40.9856 36.2753 39.6472C35.8905 38.6912 35.1209 38.8824 35.1209 38.8824C34.9285 38.8824 33.9665 39.456 35.5057 40.5076C38.6803 42.5153 40.9891 38.1176 40.9891 38.022C41.5662 36.9704 42.3358 34.0067 42.6244 32.6683L46.761 33.2419L46.9534 32.0947L42.8168 31.5211C42.913 30.9474 43.0092 30.565 43.0092 30.565L43.2016 29.3222V29.2266L47.242 29.8002L47.4344 28.653L43.394 28.0794C44.4522 22.8213 44.9332 22.5345 45.7028 21.5785C45.8952 21.3873 46.9534 20.6225 47.5306 21.9609C47.9154 22.9169 48.685 22.7257 48.685 22.7257C48.9736 22.8213 49.9356 22.1521 48.3964 21.1961Z" fill="white"/>
<path fill-rule="evenodd" clip-rule="evenodd" d="M70.8126 29.7051H65.0407V25.0206H71.005L71.1012 23.5866H63.4053V37.4488H65.0407V31.0435H70.8126V29.7051ZM74.5644 23.5866H73.0252V25.403H74.5644V23.5866ZM74.5644 27.2194H73.0252V37.4488H74.5644V27.2194ZM78.7972 23.491L77.258 23.6822V33.1467C77.258 36.4928 77.3542 37.7356 79.8554 37.7356C80.2402 37.7356 80.5287 37.64 80.9135 37.64L80.8173 36.3016C80.3363 36.3016 80.2401 36.3972 79.9515 36.3972C78.8934 36.3972 78.7972 35.728 78.7972 33.5292V23.491ZM86.4931 37.64C83.6071 37.64 81.7793 35.5368 81.7793 32.2863C81.7793 29.2271 83.6071 27.0282 86.3007 26.9326C88.8019 26.9326 90.4373 28.8447 90.4373 31.8083C90.4373 31.9995 90.4373 32.3819 90.4373 32.4775H83.4147C83.4147 34.772 84.7615 36.206 86.5893 36.206C87.7437 36.206 88.8981 35.8236 89.8601 35.1544L90.3411 36.3016C89.3791 37.162 88.1285 37.64 86.4931 37.64ZM83.4147 31.5215H88.8981C88.8981 29.3227 87.8399 28.2711 86.3007 28.2711C84.7615 28.2711 83.6071 29.6095 83.4147 31.5215ZM99.5762 36.7796C98.9028 37.4488 97.8446 37.7356 96.7864 37.7356C93.6119 37.7356 91.8803 35.25 91.8803 32.3819C91.8803 29.5139 93.7081 27.0282 96.7864 27.0282C97.9408 27.0282 98.999 27.4106 99.5762 27.8886L99.1914 29.0359C98.518 28.5579 97.6522 28.3667 96.7864 28.3667C94.9586 28.3667 93.5157 30.0875 93.5157 32.4775C93.5157 34.8676 94.8624 36.4928 96.9788 36.4928C97.8446 36.4928 98.6142 36.206 99.2876 35.728L99.5762 36.7796ZM108.715 32.3819C108.715 30.1831 107.946 28.2711 105.637 28.2711C103.424 28.2711 102.462 30.2787 102.462 32.3819C102.462 34.4852 103.52 36.3972 105.733 36.3972C107.946 36.3972 108.715 34.4852 108.715 32.3819ZM110.351 32.3819C110.351 35.1544 108.715 37.7356 105.637 37.7356C102.558 37.7356 100.827 35.3456 100.827 32.4775C100.827 29.6095 102.558 27.1238 105.733 27.1238C108.715 27.0282 110.351 29.4183 110.351 32.3819ZM114.102 23.5866H112.563V25.403H114.102V23.5866ZM114.102 27.2194H112.563V37.4488H114.102V27.2194ZM121.51 27.0282C120.067 27.0282 118.624 27.6974 117.854 28.7491L117.758 27.2194H116.411V29.7051V37.4488H117.95V30.4699C118.239 29.5139 119.393 28.3667 121.125 28.3667C123.049 28.3667 123.145 29.7051 123.145 32.3819V37.4488H124.684V31.3303C124.78 28.4623 123.818 27.0282 121.51 27.0282Z" fill="#020712"/>
<path d="M2 27.8484V8.86956C2 5.00357 5.13401 1.86957 9 1.86957H45.4701" stroke="url(#paint0_linear_363_6317)" stroke-width="3"/>
<path d="M149 35.0212V54C149 57.866 145.866 61 142 61H105.53" stroke="url(#paint1_linear_363_6317)" stroke-width="3"/>
<defs>
<linearGradient id="paint0_linear_363_6317" x1="45.4701" y1="1.86957" x2="6.71769" y2="30.5186" gradientUnits="userSpaceOnUse">
<stop stop-color="#D2E6F9" stop-opacity="0"/>
<stop offset="0.666045" stop-color="#B3DAFF"/>
<stop offset="1" stop-color="#D2E6F9" stop-opacity="0"/>
</linearGradient>
<linearGradient id="paint1_linear_363_6317" x1="105.53" y1="61" x2="144.282" y2="32.351" gradientUnits="userSpaceOnUse">
<stop stop-color="#D2E6F9" stop-opacity="0"/>
<stop offset="0.666045" stop-color="#B3DAFF"/>
<stop offset="1" stop-color="#D2E6F9" stop-opacity="0"/>
</linearGradient>
</defs>
</svg>
