<svg width="26" height="26" viewBox="0 0 26 26" fill="none" xmlns="http://www.w3.org/2000/svg">
<g clip-path="url(#clip0_364_13244)">
<path d="M0.200195 22.6377C0.200195 17.5616 0.200195 12.4856 0.200195 7.40954C0.216229 7.39288 0.240662 7.37924 0.247533 7.3603C0.59188 6.36646 1.16223 5.96195 2.22199 5.96195C3.90555 5.96195 5.58834 5.95816 7.2719 5.96725C7.475 5.96801 7.51699 5.90817 7.5147 5.71955C7.50401 4.94235 7.51012 4.16514 7.51088 3.38794C7.51088 2.68043 7.85599 2.3335 8.56301 2.3335C11.5209 2.3335 14.4787 2.3335 17.4374 2.3335C18.1421 2.3335 18.488 2.68119 18.4887 3.38946C18.4895 4.16666 18.4956 4.94386 18.4842 5.72106C18.4811 5.91347 18.53 5.96801 18.7293 5.96725C20.4372 5.95892 22.146 5.96119 23.854 5.96271C25.0313 5.96346 25.7979 6.71794 25.7987 7.8792C25.7994 12.6492 25.7987 17.4192 25.8002 22.19C25.8002 22.3983 25.7811 22.6021 25.7208 22.8013C25.4734 23.6164 24.7817 24.0928 23.8402 24.0928C16.6242 24.0936 9.40822 24.0928 2.19221 24.0928C2.10059 24.0928 2.00897 24.0928 1.91735 24.0875C1.18361 24.0474 0.546069 23.5679 0.30098 22.8793C0.271203 22.7975 0.282655 22.6983 0.200195 22.6377ZM12.9868 5.96271C14.1367 5.96271 15.2865 5.95892 16.4364 5.96649C16.6097 5.96801 16.6632 5.92635 16.6578 5.74985C16.6448 5.27868 16.6494 4.80751 16.6563 4.33634C16.6586 4.19923 16.6433 4.13409 16.4731 4.13484C14.1565 4.1409 11.8408 4.1409 9.52428 4.13484C9.35401 4.13409 9.33951 4.19999 9.3418 4.33634C9.34867 4.80751 9.35249 5.27868 9.34027 5.74985C9.33569 5.9271 9.3899 5.96725 9.56246 5.96649C10.7047 5.95892 11.8454 5.96271 12.9868 5.96271Z" fill="#2E5B98"/>
</g>
<defs>
<clipPath id="clip0_364_13244">
<rect width="25.6" height="25.6" fill="white" transform="translate(0.200195 0.200195)"/>
</clipPath>
</defs>
</svg>
