<svg width="26" height="26" viewBox="0 0 26 26" fill="none" xmlns="http://www.w3.org/2000/svg">
<g clip-path="url(#clip0_364_13258)">
<path d="M0.200195 9.34774C0.375968 9.01157 0.68474 8.85652 1.01757 8.71282C4.87522 7.04733 8.73086 5.37648 12.5838 3.70096C12.9026 3.56195 13.1847 3.59937 13.4928 3.73371C17.1325 5.317 20.7756 6.89227 24.4174 8.47022C24.7375 8.60856 25.0603 8.74223 25.3731 8.89595C25.6598 9.03697 25.8029 9.28626 25.8009 9.60372C25.7982 9.92051 25.6512 10.1571 25.3651 10.3075C25.1893 10.3997 25.0456 10.393 24.9447 10.2046C24.8171 9.96596 24.6039 9.88375 24.3506 9.85167C22.0468 9.55693 19.7437 9.25819 17.44 8.96144C16.0037 8.77632 14.5668 8.58985 13.1299 8.40806C12.6593 8.34858 12.2523 8.66537 12.2049 9.11383C12.1581 9.55426 12.4735 9.93789 12.9347 9.99737C15.6836 10.3509 18.4331 10.7031 21.182 11.056C21.8176 11.1376 22.4525 11.2251 23.0888 11.302C23.328 11.3307 23.4075 11.4517 23.4075 11.6863C23.4029 14.5695 23.4049 17.4533 23.4035 20.3365C23.4035 20.8438 23.066 21.2027 22.6009 21.2014C22.1444 21.2 21.8049 20.8318 21.8042 20.3259C21.8029 17.6091 21.8035 14.8923 21.8035 12.1755C21.8035 12.0846 21.8035 11.993 21.8035 11.9055C21.7013 11.8674 21.6324 11.9335 21.5609 11.9643C18.8936 13.1192 16.2256 14.2727 13.5643 15.4396C13.1766 15.6094 12.8365 15.6107 12.4455 15.4403C8.57179 13.7501 4.69276 12.0712 0.811056 10.397C0.536369 10.2767 0.356586 10.0836 0.200195 9.84766C0.200195 9.68124 0.200195 9.51416 0.200195 9.34774Z" fill="#2E5B98"/>
<path d="M21.0044 16.0197C20.9757 16.5544 21.0726 17.2007 20.9349 17.8343C20.7197 18.8187 20.1249 19.5526 19.3483 20.1541C18.2596 20.9975 17.0044 21.4707 15.6704 21.7347C13.39 22.1858 11.1317 22.0989 8.92087 21.3444C7.73257 20.9387 6.65321 20.3445 5.83249 19.3601C5.28044 18.6978 4.98637 17.9412 4.9984 17.0677C5.0111 16.2015 5.00041 15.3347 5.00108 14.4678C5.00174 14.0929 5.13608 14.0054 5.48428 14.1557C7.61762 15.0794 9.75362 15.997 11.8809 16.9327C12.6375 17.2655 13.3667 17.2675 14.1212 16.936C16.2418 16.005 18.3692 15.0881 20.4945 14.1658C20.8721 14.002 21.0037 14.0849 21.0044 14.4892C21.0044 14.9651 21.0044 15.4403 21.0044 16.0197Z" fill="#2E5B98"/>
</g>
<defs>
<clipPath id="clip0_364_13258">
<rect width="25.6" height="25.6" fill="white" transform="translate(0.200195 0.200073)"/>
</clipPath>
</defs>
</svg>
