<svg width="26" height="26" viewBox="0 0 26 26" fill="none" xmlns="http://www.w3.org/2000/svg">
<g clip-path="url(#clip0_364_13248)">
<path d="M25.8002 11.853C25.8002 15.5528 25.8002 19.2531 25.8002 22.9529C25.7192 22.9902 25.7298 23.0765 25.7019 23.1413C25.4924 23.6287 25.1357 23.9284 24.606 24.0168C24.3324 24.0622 24.0566 24.0291 23.783 24.0481C23.6196 24.0594 23.5696 24.0087 23.5713 23.8428C23.5791 23.0346 23.5777 22.2264 23.572 21.4178C23.5713 21.2907 23.6175 21.1988 23.6914 21.1033C24.7455 19.7397 24.8849 17.8969 24.0461 16.4611C23.1519 14.9309 21.5443 14.1347 19.7817 14.4034C18.2466 14.6372 17.1475 15.5014 16.5597 16.9302C15.9561 18.3966 16.1678 19.7986 17.1123 21.0776C17.2073 21.2062 17.2535 21.3252 17.2521 21.4833C17.2457 22.25 17.2387 23.0167 17.2556 23.783C17.2605 24.0105 17.1943 24.0506 16.9809 24.0506C11.9227 24.0443 6.86458 24.0457 1.80642 24.0457C0.764717 24.0446 0.200195 23.4815 0.200195 22.443C0.200195 17.2682 0.200195 12.0935 0.200195 6.91844C0.200195 5.89223 0.762604 5.32524 1.78811 5.32524C7.52947 5.32419 13.2708 5.32595 19.0122 5.32031C19.215 5.31996 19.2788 5.36469 19.2774 5.57775C19.2675 7.03607 19.2721 8.49439 19.2724 9.9527C19.2724 10.1608 19.276 10.37 19.3313 10.5715C19.5517 11.3748 20.1863 11.8502 21.0502 11.8519C22.6335 11.8555 24.2169 11.853 25.8002 11.853ZM10.3475 9.74141C8.08237 9.74141 5.81724 9.74352 3.55176 9.73753C3.37251 9.73718 3.30207 9.76993 3.31193 9.96679C3.32954 10.3158 3.3313 10.6669 3.31158 11.0155C3.29926 11.2353 3.36088 11.2923 3.58451 11.2916C6.24935 11.2832 8.91419 11.286 11.5794 11.286C13.4283 11.286 15.2771 11.2828 17.1256 11.2906C17.3141 11.2913 17.3669 11.2445 17.3584 11.0564C17.3422 10.6989 17.3429 10.3401 17.3581 9.98264C17.3662 9.79177 17.3183 9.73542 17.1175 9.73612C14.8612 9.74422 12.6042 9.74141 10.3475 9.74141ZM9.24804 16.1068C11.0469 16.1068 12.8454 16.1068 14.6443 16.1068C15.219 16.1068 15.207 16.1065 15.2239 15.5282C15.2306 15.3025 15.1648 15.257 14.9482 15.2574C11.2674 15.2644 7.58688 15.2627 3.90604 15.2627C3.31546 15.2627 3.32602 15.263 3.31158 15.8596C3.3063 16.0765 3.37849 16.1124 3.57747 16.1117C5.46719 16.1036 7.35762 16.1068 9.24804 16.1068ZM6.82585 18.7526C7.80029 18.7526 8.77473 18.7526 9.74918 18.7526C10.3464 18.7526 10.3362 18.7523 10.3493 18.1423C10.3535 17.9349 10.2838 17.9018 10.0971 17.9025C8.03976 17.9088 5.98241 17.9064 3.92541 17.9064C3.3151 17.9064 3.32637 17.9067 3.31088 18.5061C3.30524 18.7266 3.38025 18.759 3.57747 18.7572C4.66003 18.7473 5.74294 18.7526 6.82585 18.7526Z" fill="#2E5B98"/>
<path d="M17.0809 18.5533C17.0059 16.8685 18.4674 15.2996 20.1535 15.1933C22.0401 15.0743 23.6505 16.485 23.7414 18.3617C23.8291 20.1793 22.4004 21.7679 20.6198 21.8485C18.6751 21.9366 17.1693 20.5342 17.0809 18.5533Z" fill="#2E5B98"/>
<path d="M25.6722 11.0035C24.1237 11.0035 22.5172 11.0085 20.9102 11C20.5169 10.9979 20.207 10.7017 20.1365 10.3122C20.1263 10.2548 20.1143 10.1967 20.1143 10.139C20.1133 8.55738 20.1133 6.97615 20.1133 5.44458C21.9597 7.29099 23.8262 9.15711 25.6722 11.0035Z" fill="#2E5B98"/>
<path d="M18.1025 25.9601C18.1025 24.6331 18.1025 23.3368 18.1025 22.0183C19.6461 22.9279 21.1815 22.9293 22.7349 22.0077C22.7349 22.8057 22.7349 23.5692 22.7349 24.3327C22.7349 24.8074 22.7254 25.2825 22.7392 25.7569C22.7451 25.9657 22.6825 25.9674 22.5173 25.8995C21.8802 25.6382 21.2368 25.3917 20.5997 25.1293C20.4666 25.0744 20.3582 25.0719 20.225 25.1265C19.557 25.4001 18.8847 25.6635 18.2138 25.9301C18.1846 25.9417 18.1525 25.947 18.1025 25.9601Z" fill="#2E5B98"/>
</g>
<defs>
<clipPath id="clip0_364_13248">
<rect width="25.6" height="25.6" fill="white" transform="translate(0.200195 0.200195)"/>
</clipPath>
</defs>
</svg>
