<svg width="26" height="26" viewBox="0 0 26 26" fill="none" xmlns="http://www.w3.org/2000/svg">
<g clip-path="url(#clip0_364_13253)">
<path d="M25.8002 23.775C25.6518 24.0394 25.5979 24.3443 25.4063 24.5898C24.5646 25.6689 23.1698 25.7417 22.169 24.7435C20.3425 22.9225 18.5161 21.0988 16.6978 19.2643C16.509 19.0755 16.3984 19.0701 16.1717 19.2103C13.1367 21.1069 9.92904 21.4279 6.61614 20.0925C4.22049 19.1321 2.43725 17.4406 1.29608 15.1124C-0.0582186 12.3471 -0.15534 9.50635 0.993923 6.66287C1.97053 4.24294 3.66205 2.43542 6.01992 1.28615C8.79057 -0.0627483 11.626 -0.151776 14.4721 1.00019C16.884 1.97679 18.6969 3.65752 19.8246 6.0127C21.4109 9.3283 21.2436 12.6007 19.4496 15.7976C19.3363 16 19.3632 16.0971 19.517 16.2509C21.1708 17.8938 22.8164 19.5449 24.4648 21.1905C25.007 21.7328 25.6006 22.2346 25.8002 23.025C25.8002 23.2759 25.8002 23.5268 25.8002 23.775ZM17.5449 10.5504C17.5314 6.69794 14.3858 3.5577 10.5522 3.57389C6.69168 3.59007 3.56493 6.71683 3.57032 10.5612C3.57572 14.411 6.71326 17.5431 10.563 17.535C14.3831 17.5269 17.5126 14.4757 17.5449 10.5504Z" fill="#2E5B98"/>
</g>
<defs>
<clipPath id="clip0_364_13253">
<rect width="25.6" height="25.6" fill="white" transform="translate(0.200195 0.200073)"/>
</clipPath>
</defs>
</svg>
